<svg version="1.1" xmlns="http://www.w3.org/2000/svg" style="display: block;" viewBox="0 0 2048 2048" width="1024" height="1024" preserveAspectRatio="none">
<path transform="translate(0,0)" fill="rgb(255,255,255)" d="M 1001.55 83.424 C 1135.15 83.0682 1246.18 109.058 1365.06 171.916 C 1537.26 264.759 1666.3 421.294 1724.59 608.048 C 1784.99 804.416 1737.73 996.291 1639.85 1171.27 C 1632.13 1185.07 1623.5 1198.62 1616.14 1212.55 C 1606.06 1162.51 1596.45 1140.04 1567.95 1097.96 C 1621.99 996.524 1661.31 878.272 1654.71 762.314 C 1643.7 569.227 1527.36 394.526 1369.89 288.27 C 1232.35 194.451 1063.02 159.48 899.566 191.135 C 716.046 226.975 572.494 334.757 469.218 488.213 C 523.355 488.943 577.77 487.812 632.058 488.103 C 690.228 488.361 748.561 480.191 793.986 525.42 C 836.873 568.121 833.38 610.809 833.672 665.947 C 833.86 701.493 832.779 738.719 833.448 774.168 L 1026.66 774.043 C 1086.23 774.114 1137.81 793.897 1168.25 847.651 C 1192.91 891.204 1187.77 933.995 1187.46 982.077 L 1187.17 1079.86 L 1326.42 1079.8 C 1397.62 1079.87 1449.4 1075.06 1504.67 1131.72 C 1566.95 1195.57 1563.22 1283.89 1523.07 1358.61 C 1512.82 1377.69 1498.91 1394.13 1486.27 1411.61 C 1356.27 1587.32 1203.23 1744.4 1051.35 1901.02 C 1012.91 1940.64 983.725 1900.85 956.857 1873.34 C 746.564 1659.48 531.017 1428.1 390.909 1161.13 C 292.462 973.551 250.104 793.614 314.733 586.752 C 339.956 618.298 358.032 632.546 397.121 646.345 C 387.618 688.273 381.388 729.248 380.093 772.324 C 372.618 1020.99 583.78 1311.26 738.569 1492.73 C 786.014 1547.59 834.487 1601.55 883.962 1654.58 L 1017.89 1794.65 C 1030.71 1782.13 1043.92 1767.42 1056.45 1754.36 C 1081.98 1727.93 1107.34 1701.34 1132.52 1674.58 C 1237.05 1563.57 1338.56 1447.59 1428.63 1324.32 C 1446 1300.55 1459.26 1269.36 1453.97 1239.58 C 1450.56 1218.12 1436.54 1193.19 1415.5 1184.44 C 1386.53 1172.38 1342.89 1176.06 1311.76 1176.1 L 1166.37 1175.99 C 1150.08 1175.83 1115.38 1179.45 1102.63 1170.68 C 1084.91 1158.51 1090.2 1119.65 1090.2 1098.83 L 1090.18 976.943 C 1090.18 956.933 1090.63 934.565 1089.41 915.174 C 1088.17 895.619 1069.39 876.657 1051.19 872.371 C 1036.58 868.929 1001.85 870.38 985.112 870.433 L 839.832 870.54 C 823.182 870.562 758.044 873.567 748.053 865.02 C 742.783 860.472 739.175 854.3 737.797 847.476 C 734.886 832.583 737.269 801.365 737.128 785.214 C 736.674 733.541 736.68 681.636 737.084 629.979 C 737.209 614.127 728.541 594.78 713.103 588.639 C 694.769 581.346 669.726 584.228 649.657 584.248 L 506.166 584.428 C 485.321 584.471 464.347 584.359 443.523 584.393 C 399.496 584.466 362.63 557.594 360.432 511.583 C 359.873 498.33 362.172 485.112 367.173 472.826 C 380.66 439.462 432.868 371.746 456.888 344.219 C 570.394 214.141 724.82 123.002 895.21 93.9784 C 930.413 88.3315 965.923 84.807 1001.55 83.424 z"/>
<path transform="translate(0,0)" fill="rgb(255,255,255)" d="M 481.174 652.104 L 581.31 651.993 C 578.006 664.039 573.839 675.646 570.65 688.092 C 564.23 714.145 560.192 740.729 558.588 767.514 C 551.643 884.278 605.245 992.995 662.965 1090.97 C 725.365 1196.89 801.612 1294.68 882.224 1387.32 C 910.441 1419.75 939.129 1451.77 968.279 1483.37 C 984.67 1501.13 1001.93 1518.64 1017.93 1536.62 C 1048.6 1501.78 1082.37 1467.34 1113.78 1432.35 C 1167.89 1371.91 1219.71 1309.46 1269.15 1245.14 L 1378.93 1245.35 C 1368.22 1277.27 1351.98 1294.68 1331.73 1321 C 1254.24 1420.03 1171.67 1514.98 1084.35 1605.47 C 1071.27 1619.25 1043.51 1651.73 1028.67 1659.43 C 1022.81 1662.48 1014.18 1662 1008.07 1659.95 C 993.564 1655.06 945.36 1599.88 932.68 1586.44 C 779.422 1424.1 620.896 1239.05 525.134 1035.81 C 476.243 932.047 448.937 820.451 469.152 705.939 C 472.261 688.326 475.132 668.888 481.174 652.104 z"/>
<path transform="translate(0,0)" fill="rgb(255,255,255)" d="M 1015.64 260.433 C 1107.7 263.928 1180.87 277.937 1264.66 319.832 C 1393.71 384.362 1500.59 499.754 1547.19 636.983 C 1595.67 779.761 1571.2 914.233 1505 1046.5 C 1496.04 1042.88 1486.28 1036.81 1476.9 1032.81 C 1455.95 1023.87 1436.24 1018.83 1414.04 1014.97 C 1455.27 930.469 1488.18 844.786 1475.33 748.5 C 1472.5 717.76 1458.62 669.031 1446.11 640.459 C 1395.29 524.413 1298.7 433.266 1181.22 386.872 C 1070.61 343.191 956.727 345.669 847.066 388.956 C 831.865 394.858 817.025 401.654 802.626 409.309 C 791.885 414.991 780.65 421.991 769.475 426.543 C 739.169 421.545 711.937 419.311 681.146 420.408 C 663.819 421.026 646.411 419.957 628.945 420.811 C 630.308 419.266 631.7 417.748 633.121 416.256 C 646.509 402.301 667.638 385.164 683.06 373.531 C 781.013 299.645 893.788 263.412 1015.64 260.433 z"/>
</svg>